<?xml version="1.0" encoding="UTF-8" standalone="no"?>
<svg 
	width="100%" 
	viewBox="0 0 50 100" 
	version="1.1" 
	xmlns="http://www.w3.org/2000/svg" 
	xmlns:xlink="http://www.w3.org/1999/xlink">
       <!--<svg width="100%" height="100%">-->
    <defs>
    <path id="Zwaluw" 
	  style="fill:#222 ;stroke:#000000;stroke-width:0.88306653px;stroke-linecap:butt;stroke-linejoin:miter;stroke-opacity:1"
	  d="m 13.108527,45.425802 c -0.208516,-5.046255 -0.853954,-10.11993 0.0855,-15.143696 0.758238,-4.42026 1.352138,-9.190376 4.040667,-12.917806 3.233945,-1.496458 4.004517,-4.804049 3.922862,-8.0020355 0.903529,-3.4518402 4.522782,-4.5674147 7.718726,-4.0893229 3.242578,0.4042781 7.910541,1.8012106 7.460585,5.9375904 -1.009625,2.173117 4.329422,5.888389 -0.02668,4.917517 -1.758609,-0.43099 -5.771205,-0.07844 -2.412966,1.868304 2.600803,2.513391 1.325956,6.576591 1.392034,9.786558 0.56395,3.777779 -3.208506,6.603909 -2.445963,10.276966 0.43609,1.46698 3.238754,5.759646 0.947552,5.897596 -0.954494,-2.406821 -1.935043,-2.047953 -2.28446,0.344585 -1.378823,0.862374 -3.513956,-2.919445 -2.474128,0.594397 0.458322,1.301775 1.620304,5.646338 -0.495089,2.510062 -1.209807,-0.988124 -3.192418,-6.003559 -4.281719,-4.519508 -0.710642,5.329302 -2.493452,10.44898 -3.318203,15.761749 -1.244444,5.935475 -2.496147,11.865554 -4.216862,17.686494 -1.483108,4.558939 -0.417327,10.149244 -4.201584,13.750024 -2.6753979,1.515253 -1.971778,-3.747515 -2.058867,-6.490566 0.570328,-4.195886 0.932595,-8.445786 1.436416,-12.649042 -1.7485,1.702297 -2.9017027,3.119994 -4.9401086,6.505914 C 5.2594067,79.579601 3.0142551,82.599345 0.158929,83.434162 -0.41149831,80.23893 2.3572447,77.410921 2.9784156,74.30294 6.3030186,64.657783 11.189184,55.531653 13.108527,45.425802 z"
	  />
	</defs>
	<g>
	    <use xlink:href="#Zwaluw" transform="matrix(-1, 0, 0, 1, 45, 0)" />
      </g>
</svg>
